<?xml version="1.0" encoding="utf-8"?>
<!-- Generator: Adobe Illustrator 19.2.0, SVG Export Plug-In . SVG Version: 6.00 Build 0)  -->
<svg version="1.1" id="Layer_1" xmlns="http://www.w3.org/2000/svg" xmlns:xlink="http://www.w3.org/1999/xlink" x="0px" y="0px"
	 viewBox="0 0 250 250" style="enable-background:new 0 0 250 250;" xml:space="preserve">
<style type="text/css">
	.st0{opacity:0.25;fill:#404041;}
	.st1{fill:#FFFFFF;}
	.st2{fill:#BEB4A8;}
	.st3{fill:#EEE3D2;}
	.st4{clip-path:url(#SVGID_2_);}
	.st5{clip-path:url(#SVGID_4_);fill:#BAB2AE;}
	.st6{fill:#BAB2AE;}
	.st7{clip-path:url(#SVGID_6_);}
	.st8{clip-path:url(#SVGID_8_);fill:#F9F3E9;}
	.st9{clip-path:url(#SVGID_10_);}
	.st10{clip-path:url(#SVGID_12_);fill:#BAB2AE;}
	.st11{fill:#EAE7E7;}
	.st12{fill:#F9F3E9;}
	.st13{fill:#E1814F;}
	.st14{fill:#F6E1D4;}
	.st15{clip-path:url(#SVGID_14_);fill:#BAB2AE;}
	.st16{clip-path:url(#SVGID_16_);fill:#E9A57F;}
	.st17{fill:#E9A57F;}
	.st18{fill:#F6E8E0;}
	.st19{clip-path:url(#SVGID_18_);fill:#E9A57F;}
	.st20{clip-path:url(#SVGID_20_);fill:#DFCDAE;}
	.st21{fill:#DFCDAE;}
	.st22{fill:#F2DBCB;}
	.st23{fill:#877D77;}
	.st24{fill:#B8A89D;}
	.st25{clip-path:url(#SVGID_22_);fill:#B8A89D;}
	.st26{fill:#CAC9C9;}
	.st27{clip-path:url(#SVGID_24_);fill:#9D887B;}
	.st28{fill:#9D887B;}
	.st29{clip-path:url(#SVGID_26_);fill:#F4E4CA;}
	.st30{fill:#F4E4CA;}
	.st31{fill:#5F534C;}
	.st32{clip-path:url(#SVGID_28_);fill:#5F534C;}
	.st33{clip-path:url(#SVGID_30_);fill:#F4E4CA;}
	.st34{clip-path:url(#SVGID_32_);}
	.st35{clip-path:url(#SVGID_34_);fill:#3D322A;}
	.st36{clip-path:url(#SVGID_34_);fill:#FAD93D;}
	.st37{clip-path:url(#SVGID_34_);fill:#856E5E;}
	.st38{fill:#3D322A;}
	.st39{clip-path:url(#SVGID_36_);}
	.st40{clip-path:url(#SVGID_38_);fill:#3D322A;}
	.st41{clip-path:url(#SVGID_38_);fill:#B78266;}
	.st42{clip-path:url(#SVGID_38_);fill:#DA5E26;}
	.st43{clip-path:url(#SVGID_38_);fill:#F2D9C8;}
	.st44{clip-path:url(#SVGID_38_);fill:#72C6D8;}
	.st45{clip-path:url(#SVGID_40_);}
	.st46{clip-path:url(#SVGID_42_);fill:#F4AD81;}
	.st47{clip-path:url(#SVGID_42_);fill:#F69F21;}
	.st48{clip-path:url(#SVGID_42_);fill:#C8A972;}
	.st49{clip-path:url(#SVGID_42_);fill:#473619;}
	.st50{clip-path:url(#SVGID_42_);fill:#F9BD93;}
	.st51{clip-path:url(#SVGID_44_);}
	.st52{clip-path:url(#SVGID_46_);fill:#C8A972;}
	.st53{clip-path:url(#SVGID_46_);fill:#473619;}
	.st54{clip-path:url(#SVGID_48_);}
	.st55{clip-path:url(#SVGID_50_);fill:#473619;}
	.st56{opacity:0.35;fill:#6D6E70;}
	.st57{fill:#F05A28;}
</style>
<g>
	<g>
		<path class="st0" d="M235.1,128.9c0,61.8-50.1,112-112,112c-61.8,0-112-50.1-112-112s50.1-112,112-112
			C185,16.9,235.1,67.1,235.1,128.9"/>
		<path class="st1" d="M176.2,41.1c0,19.8-10.4,12.7-23.7,12.7c-13.3,0-24.4,5.8-24.4-12.7c0-13.3,10.8-24.9,24.1-24.9
			S176.2,27.8,176.2,41.1"/>
		<path class="st1" d="M173.7,50.4c0,11.8-9.7,21.5-21.5,21.5c-11.8,0-21.5-9.7-21.5-21.5V41c0-2.3,0.4-4.5,1-6.6
			c2.8-8.7,7.3-15,20.5-15c13.2,0,17,5.8,20.1,13.9c0.9,2.4,1.4,5,1.4,7.7V50.4"/>
		<path class="st1" d="M177.5,49.3c0,2.2-1.8,3.9-3.9,3.9c-2.2,0-3.9-1.8-3.9-3.9c0-2.2,1.8-3.9,3.9-3.9
			C175.7,45.3,177.5,47.1,177.5,49.3"/>
		<path class="st1" d="M134.8,49.3c0,2.2-1.8,3.9-3.9,3.9c-2.2,0-3.9-1.8-3.9-3.9c0-2.2,1.8-3.9,3.9-3.9
			C133,45.3,134.8,47.1,134.8,49.3"/>
		<path class="st1" d="M133.6,28.4v3.9H154c7.1,0,13.3,1,17-4.5c0,0-3.5-10.3-19.1-10.3C136.3,17.6,133.6,28.4,133.6,28.4"/>
		<path class="st1" d="M129.6,28.7c0,2.1,1.7,3.7,3.7,3.7c2.1,0,3.7-1.7,3.7-3.7c0-2.1-1.7-3.7-3.7-3.7
			C131.3,25,129.6,26.7,129.6,28.7"/>
		<path class="st2" d="M152.2,16.2c-3.6,0-7,0.9-10.1,2.4c-3.1,1.6-5.9,3.8-8.1,6.5c0.4,0.1,0.8,0.2,1.1,0.3c2-3.2,6.7-7.8,16.9-7.8
			c15.7,0,19.1,10.3,19.1,10.3c-0.2,0.4-0.5,0.7-0.8,1c0.7,1.4,1.4,2.9,2,4.5c0.9,2.4,1.4,5,1.4,7.7v1.2c0.8-0.5,1.6-1,2.5-1.4
			c-0.1-4.4-1.3-8.6-3.4-12.3C168.6,21.2,160.9,16.2,152.2,16.2"/>
		<path class="st2" d="M130.3,30.9c-1.1,2.4-1.8,5.1-2.1,7.8c0.8,0.1,1.7,0.3,2.5,0.5c0.1-1.6,0.5-3.2,1-4.7
			c0.2-0.7,0.5-1.4,0.8-2.1C131.6,32.1,130.8,31.6,130.3,30.9"/>
		<path class="st3" d="M170.3,28.9c-2.6,3.1-6.4,3.5-10.7,3.5c-1.8,0-3.6-0.1-5.6-0.1h-19.9c-0.2,0.1-0.5,0.1-0.8,0.1
			c-0.3,0-0.7,0-1-0.1c-0.3,0.7-0.5,1.4-0.7,2.1c-0.5,1.5-0.8,3.1-1,4.7c13.3,3.3,23.3,15.7,24,29.8c0,0,0,0,0,0
			c1.4,0.5,2.7,1.2,3.9,1.9c1-0.3,1.9-0.7,2.8-1.1c-0.2-1.4-0.3-2.9-0.3-4.3c0-9.7,5-18.3,12.7-23.2V41c0-2.7-0.5-5.3-1.4-7.7
			C171.7,31.8,171,30.3,170.3,28.9"/>
		<path class="st2" d="M151.9,17.6c-10.2,0-14.9,4.6-16.9,7.8c1.2,0.6,2.1,1.9,2.1,3.3c0,1.8-1.3,3.3-3,3.6H154
			c1.9,0,3.8,0.1,5.6,0.1c4.7,0,8.8-0.5,11.4-4.5C171.1,27.9,167.6,17.6,151.9,17.6"/>
		<path class="st2" d="M133.4,25c-2.1,0-3.7,1.7-3.7,3.7c0,2.1,1.7,3.7,3.7,3.7c2.1,0,3.7-1.7,3.7-3.7c0-1.5-0.9-2.7-2.1-3.3
			c-0.3-0.2-0.7-0.3-1.1-0.3C133.7,25,133.6,25,133.4,25"/>
		<path class="st1" d="M216.3,65.5c0,15.3-12.4,27.6-27.6,27.6S161,80.8,161,65.5s12.4-27.6,27.6-27.6S216.3,50.2,216.3,65.5"/>
		<path class="st1" d="M213.5,76.8c0,13.7-11.2,24.8-24.8,24.8c-13.7,0-24.8-11.2-24.8-24.8V66c0-2.6,0.4-5.2,1.2-7.6
			c3.2-10,23.7-17.3,23.7-17.3s19.6,6.7,23.2,16c1.1,2.7,1.6,5.7,1.6,8.8V76.8"/>
		<path class="st1" d="M217.9,75.5c0,2.5-2,4.6-4.6,4.6c-2.5,0-4.6-2-4.6-4.6s2-4.6,4.6-4.6C215.8,71,217.9,73,217.9,75.5"/>
		<path class="st1" d="M168.6,75.5c0,2.5-2,4.6-4.6,4.6c-2.5,0-4.6-2-4.6-4.6s2-4.6,4.6-4.6C166.5,71,168.6,73,168.6,75.5"/>
		<path class="st1" d="M201.9,43.7c0,3.3-5.9,6-13.3,6s-13.3-2.7-13.3-6s5.9-6,13.3-6S201.9,40.3,201.9,43.7"/>
		<g>
			<defs>
				<polyline id="SVGID_1_" points="159.5,101.6 217.9,101.6 217.9,37.6 159.5,37.6 				"/>
			</defs>
			<clipPath id="SVGID_2_">
				<use xlink:href="#SVGID_1_"  style="overflow:visible;"/>
			</clipPath>
			<g class="st4">
				<defs>
					<rect id="SVGID_3_" x="-165.1" y="-366.7" width="1518.6" height="1227"/>
				</defs>
				<clipPath id="SVGID_4_">
					<use xlink:href="#SVGID_3_"  style="overflow:visible;"/>
				</clipPath>
				<path class="st5" d="M198.7,39.7c2,1.1,3.2,2.4,3.2,3.9c0,1-0.6,2-1.5,2.8c4.9,2.8,9.9,6.5,11.5,10.7c1.1,2.7,1.6,5.7,1.6,8.8
					v3.8c0.8,0.3,1.5,0.6,2.3,1c0.3-1.7,0.5-3.5,0.5-5.4C216.3,53.8,209,43.8,198.7,39.7"/>
			</g>
		</g>
		<path class="st6" d="M178.6,39.7c-1.7,0.7-3.4,1.5-4.9,2.5c-7.6,4.9-12.7,13.5-12.7,23.2c0,2.1,0.2,4.2,0.7,6.1
			c0.6-0.4,1.3-0.6,2.1-0.6v-5c0-2.6,0.4-5.2,1.2-7.6c1.5-4.7,6.9-8.8,12.1-11.8c-1.1-0.9-1.7-1.9-1.7-2.9
			C175.4,42.2,176.6,40.8,178.6,39.7"/>
		<g>
			<defs>
				<polyline id="SVGID_5_" points="159.5,101.6 217.9,101.6 217.9,37.6 159.5,37.6 				"/>
			</defs>
			<clipPath id="SVGID_6_">
				<use xlink:href="#SVGID_5_"  style="overflow:visible;"/>
			</clipPath>
			<g class="st7">
				<defs>
					<rect id="SVGID_7_" x="-165.1" y="-366.7" width="1518.6" height="1227"/>
				</defs>
				<clipPath id="SVGID_8_">
					<use xlink:href="#SVGID_7_"  style="overflow:visible;"/>
				</clipPath>
				<path class="st8" d="M200.4,46.5c-2.2,1.9-6.6,3.2-11.7,3.2c-5,0-9.3-1.2-11.6-3.1c-5.2,3-10.6,7.1-12.1,11.8
					c-0.8,2.4-1.2,4.9-1.2,7.6v5c0.1,0,0.1,0,0.2,0c2.5,0,4.6,2,4.6,4.6c0,1.3-0.6,2.5-1.5,3.4c2.2,3.2,3.7,7,4.3,11
					c0.7-0.2,1.5-0.3,2.3-0.3c0,0,0.1,0,0.1,0c0,0,0.1,0,0.1,0c0.4,0,0.8,0,1.2,0.1c3-12.5,14.3-21.9,27.8-21.9
					c3.7,0,7.2,0.7,10.5,2V66c0-3.1-0.6-6.1-1.6-8.8C210.2,52.9,205.3,49.2,200.4,46.5"/>
			</g>
		</g>
		<g>
			<defs>
				<polyline id="SVGID_9_" points="159.5,101.6 217.9,101.6 217.9,37.6 159.5,37.6 				"/>
			</defs>
			<clipPath id="SVGID_10_">
				<use xlink:href="#SVGID_9_"  style="overflow:visible;"/>
			</clipPath>
			<g class="st9">
				<defs>
					<rect id="SVGID_11_" x="-165.1" y="-366.7" width="1518.6" height="1227"/>
				</defs>
				<clipPath id="SVGID_12_">
					<use xlink:href="#SVGID_11_"  style="overflow:visible;"/>
				</clipPath>
				<path class="st10" d="M188.7,37.6c-0.2,0-0.4,0-0.6,0c-3.8,0.1-7.1,0.9-9.4,2.1c-2,1.1-3.2,2.4-3.2,3.9c0,3.3,5.9,6,13.3,6
					s13.3-2.7,13.3-6c0-1.5-1.2-2.9-3.2-3.9C196.3,38.5,192.7,37.6,188.7,37.6"/>
			</g>
		</g>
		<path class="st1" d="M121.6,38.1c0,14-9.8,25.4-25.7,25.4c-15.9,0-25.7-11.4-25.7-25.4c0-14,9.6-22.1,25.5-22.1
			C111.6,16,121.6,24.1,121.6,38.1"/>
		<path class="st1" d="M118.7,48.9c0,13.7-9.2,25-22.9,25c-13.7,0-22.9-11.2-22.9-25V38.1c0-2.7,1.5-5.2,2.2-7.6
			c3.2-10,4.9-17.3,20.6-17.3c15.8,0,16.6,6.7,20.2,16.1c1.1,2.8,2.7,5.8,2.7,8.9V48.9"/>
		<path class="st1" d="M122.1,47.6c0,2.5-2,4.6-4.6,4.6c-2.5,0-4.6-2-4.6-4.6c0-2.5,2.1-4.6,4.6-4.6C120,43.1,122.1,45.1,122.1,47.6
			"/>
		<path class="st1" d="M78.8,47.6c0,2.5-2,4.6-4.6,4.6s-4.6-2-4.6-4.6c0-2.5,2.1-4.6,4.6-4.6S78.8,45.1,78.8,47.6"/>
		<path class="st1" d="M75.7,33.7c-1.4,4-2.3,10.4-2.7,10.7c-0.2,0.2-1.4-0.3-1.6-0.7c-1.3-2.4-2.1-9,1.4-15.1
			c9.2-15.9,6.4-3.2,6.1-2.3C78.7,27.1,77.3,29,75.7,33.7"/>
		<path class="st1" d="M115.7,33.7c1.4,4,2.3,10.4,2.7,10.7c0.2,0.2,1.4-0.3,1.6-0.7c1.3-2.4,2.1-9-1.4-15.1
			c-9.2-15.9-6.4-3.2-6.1-2.3C112.8,27.1,114.1,29,115.7,33.7"/>
		<path class="st1" d="M91.9,60.8c-1,0-5.4-0.9-5.4-1.4c0-0.5,4.4-1.4,7.6-4c0.3-0.2,2.2,2.7,2,3.8C96,60,93.6,60.8,91.9,60.8"/>
		<path class="st1" d="M96.4,57.1c0.3,1.3-0.1,2.5-0.9,2.8c-0.8,0.3-1.7-0.6-2-1.8c-0.3-1.3,0.1-2.5,0.9-2.8
			C95.2,54.9,96.1,55.8,96.4,57.1"/>
		<path class="st1" d="M99.8,60.8c1,0,5.4-0.9,5.4-1.4c0-0.5-4.4-1.4-7.6-4c-0.3-0.2-2.2,2.7-2,3.8C95.8,60,98.2,60.8,99.8,60.8"/>
		<path class="st1" d="M95.3,57.1c-0.3,1.3,0.1,2.5,0.9,2.8c0.8,0.3,1.7-0.6,2-1.8c0.3-1.3-0.1-2.5-0.9-2.8
			C96.5,54.9,95.6,55.8,95.3,57.1"/>
		<path class="st11" d="M79.4,20c-5.9,3.7-9.2,9.9-9.2,18.1c0,0.5,0,1,0,1.5c0.1,0,0.1,0.1,0.2,0.1c-0.1-0.6-0.1-1.2-0.1-1.8
			c0-2.8,0.6-6.2,2.5-9.4c3.5-6,5.3-7.9,6.1-7.9c0,0,0,0,0.1,0C79.1,20.4,79.2,20.2,79.4,20"/>
		<path class="st11" d="M112.3,20.1c0.1,0.2,0.2,0.3,0.3,0.5c0.9,0.1,2.6,2.1,6,7.9c1.9,3.2,2.5,6.6,2.5,9.4c0,0.2,0,0.3,0,0.5
			c0.1,0,0.3,0,0.4,0c0-0.1,0-0.2,0-0.3C121.6,30,118.2,23.8,112.3,20.1"/>
		<path class="st12" d="M87.4,59.9c0.4,1.7,0.5,3.5,0.6,5.3c1.4-2.2,3.6-3.9,6.3-4.6c0-0.1,0-0.1,0.1-0.2c-0.8,0.2-1.6,0.4-2.3,0.4
			C91.2,60.8,88.7,60.3,87.4,59.9 M96.3,13.1h-0.8C86.3,13.2,82,15.8,79.4,20c-0.1,0.2-0.3,0.4-0.4,0.6c0.4,0.1,0.6,0.7,0.6,1.6
			c0,1.6-0.5,3.7-0.6,4.1c-0.3,0.9-1.6,2.7-3.2,7.4c-0.8,2.3-1.4,5.4-1.9,7.7c6.6,3.7,11.6,10,13.4,17.6c1.3-0.6,4.5-1.6,6.9-3.6
			c0,0,0,0,0,0c0.1-0.1,0.2-0.1,0.3-0.1c0.1,0,0.2,0,0.3,0c0-0.2,0-0.4,0-0.6c0-2.7,2.2-4.8,4.8-4.8c0.2,0,0.5,0,0.7,0.1
			c4.3-5.3,10.3-9.2,17-10.7c-0.4-1.8-0.9-3.8-1.4-5.4c-1.6-4.7-3-6.5-3.2-7.4c-0.1-0.3-0.6-2.5-0.6-4.1c0-0.9,0.2-1.6,0.7-1.6
			c0,0,0,0,0.1,0c-0.1-0.2-0.2-0.3-0.3-0.5c-0.5-0.9-1.1-1.7-1.8-2.5C108,14.9,103.9,13.2,96.3,13.1"/>
		<path class="st11" d="M78.9,20.6c-0.8,0-2.6,1.9-6.1,7.9c-1.9,3.2-2.5,6.6-2.5,9.4c0,0.6,0,1.2,0.1,1.8v0c1.2,0.5,2.3,1,3.4,1.6
			c0.5-2.3,1.1-5.4,1.9-7.7c1.6-4.7,3-6.5,3.2-7.4c0.1-0.3,0.6-2.5,0.6-4.1C79.6,21.3,79.4,20.7,78.9,20.6
			C79,20.6,78.9,20.6,78.9,20.6"/>
		<path class="st11" d="M112.5,20.6c-0.5,0-0.7,0.7-0.7,1.6c0,1.6,0.5,3.7,0.6,4.1c0.3,0.9,1.6,2.7,3.2,7.4c0.5,1.6,1,3.6,1.4,5.4
			c1.3-0.3,2.6-0.5,4-0.6c0-0.2,0-0.3,0-0.5c0-2.8-0.6-6.2-2.5-9.4C115.1,22.5,113.4,20.6,112.5,20.6"/>
		<path class="st11" d="M94.1,55.3C94.1,55.3,94.1,55.3,94.1,55.3c-2.5,2.1-5.6,3-6.9,3.6c0.1,0.3,0.1,0.6,0.2,0.9
			c1.3,0.4,3.8,0.9,4.5,0.9c0.7,0,1.6-0.1,2.3-0.4c0.1-0.2,0.2-0.5,0.2-0.7c-0.5-0.3-0.9-0.9-1-1.7c-0.1-0.3-0.1-0.6-0.1-0.8
			C93.4,56.4,93.7,55.7,94.1,55.3"/>
		<path class="st11" d="M94.7,55.2c-0.1,0-0.2,0-0.3,0c-0.1,0-0.2,0.1-0.3,0.1c-0.5,0.3-0.7,1-0.7,1.8c0,0.3,0,0.5,0.1,0.8
			c0.2,0.8,0.6,1.4,1,1.7c0.2-0.6,0.5-1.2,0.7-1.8c0-0.3,0-0.5,0.1-0.8C95,56.5,94.8,55.8,94.7,55.2"/>
		<path class="st11" d="M95.3,57.1c-0.1,0.3-0.1,0.5-0.1,0.8c0.1-0.2,0.2-0.4,0.2-0.6C95.4,57.2,95.4,57.1,95.3,57.1"/>
		<path class="st1" d="M154.7,70.5c0,25.6-13.4,16.4-30.5,16.4c-17.1,0-31.5,7.5-31.5-16.4c0-17.1,13.9-32.2,31-32.2
			C140.8,38.3,154.7,53.4,154.7,70.5"/>
		<path class="st1" d="M151.5,82.5c0,15.3-12.5,27.8-27.8,27.8c-15.3,0-27.8-12.5-27.8-27.8v-12c0-3,0.5-5.8,1.3-8.5
			c3.6-11.2,9.5-19.3,26.5-19.3c17,0,22,7.5,26,17.9c1.2,3.1,1.8,6.4,1.8,9.9V82.5"/>
		<path class="st1" d="M156.3,81.1c0,2.8-2.3,5.1-5.1,5.1c-2.8,0-5.1-2.3-5.1-5.1c0-2.8,2.3-5.1,5.1-5.1
			C154,76,156.3,78.3,156.3,81.1"/>
		<path class="st1" d="M101.2,81.1c0,2.8-2.3,5.1-5.1,5.1c-2.8,0-5.1-2.3-5.1-5.1c0-2.8,2.3-5.1,5.1-5.1
			C98.9,76,101.2,78.3,101.2,81.1"/>
		<path class="st1" d="M99.7,54.2v5.1h26.4c9.2,0,17.2,1.3,22-5.8c0,0-4.5-13.3-24.7-13.3C103.2,40.2,99.7,54.2,99.7,54.2"/>
		<path class="st1" d="M94.6,54.5c0,2.7,2.2,4.8,4.8,4.8c2.7,0,4.8-2.2,4.8-4.8c0-2.7-2.2-4.8-4.8-4.8
			C96.8,49.7,94.6,51.9,94.6,54.5"/>
		<path class="st13" d="M123.7,38.3c-0.8,0-1.7,0-2.5,0.1c-1.4,0.1-2.7,0.3-4,0.6c-6.7,1.5-12.7,5.4-17,10.7c0.5,0.1,1,0.2,1.4,0.4
			c2.6-4.1,8.7-10.1,21.8-10.1c20.2,0,24.7,13.3,24.7,13.3c-0.3,0.5-0.6,0.9-1,1.3c0.9,1.8,1.8,3.7,2.6,5.8c0.9,2.3,1.5,4.7,1.7,7.2
			c1.3,0.3,2.4,0.8,3.3,1.3c-0.7-14.1-10.7-26.5-24-29.8c-0.8-0.2-1.6-0.4-2.5-0.5C126.7,38.4,125.2,38.3,123.7,38.3"/>
		<path class="st13" d="M95.5,57.3c-0.5,1.1-0.9,2.2-1.3,3.3c0.8-0.2,1.7-0.3,2.6-0.4c0.1,0,0.1,0,0.2,0c0.1,0,0.1,0,0.2,0
			c0.2,0,0.4,0,0.6,0c0.1-0.4,0.3-0.7,0.4-1.1C97.1,58.9,96.1,58.2,95.5,57.3"/>
		<path class="st14" d="M147.1,54.8c-3.4,4-8.2,4.6-13.8,4.6c-2.3,0-4.7-0.1-7.2-0.1h-25.7c-0.3,0.1-0.6,0.1-1,0.1
			c-0.4,0-0.8-0.1-1.2-0.2c-0.1,0.3-0.3,0.7-0.4,1.1c5.6,0.4,10,5,10,10.7c0,0.1,0,0.1,0,0.2c0.9,0.3,1.7,0.7,2.6,1.1c0,0,0,0,0,0.1
			c4.3,2.1,8,5.3,10.9,9.1c3-5.6,7.9-10.1,13.9-12.4c2.4-1.2,5.9-2,9.8-2c2.3,0,4.5,0.3,6.4,0.8c-0.2-2.5-0.8-4.9-1.7-7.2
			C148.8,58.5,148,56.6,147.1,54.8"/>
		<path class="st13" d="M123.4,40.2c-13.1,0-19.2,5.9-21.8,10.1c1.6,0.8,2.7,2.4,2.7,4.3c0,2.3-1.6,4.3-3.8,4.7h25.7
			c2.5,0,4.9,0.1,7.2,0.1c6.1,0,11.3-0.7,14.8-5.9C148.1,53.5,143.6,40.2,123.4,40.2"/>
		<path class="st13" d="M99.4,49.7c-2.7,0-4.8,2.2-4.8,4.8c0,2.7,2.2,4.8,4.8,4.8c2.7,0,4.8-2.2,4.8-4.8c0-1.9-1.1-3.5-2.7-4.3
			c-0.4-0.2-0.9-0.4-1.4-0.4C99.9,49.8,99.7,49.7,99.4,49.7"/>
		<path class="st1" d="M88,65.5c0,15.3-12.4,27.6-27.6,27.6c-15.3,0-27.6-12.4-27.6-27.6s12.4-27.6,27.6-27.6
			C75.6,37.9,88,50.2,88,65.5"/>
		<path class="st1" d="M85.2,76.8c0,13.7-11.2,24.8-24.8,24.8c-13.7,0-24.8-11.2-24.8-24.8V66c0-2.6,0.4-5.2,1.2-7.6
			c3.2-10,23.7-17.3,23.7-17.3s19.6,6.7,23.2,16c1.1,2.7,1.6,5.7,1.6,8.8V76.8"/>
		<path class="st1" d="M89.5,75.5c0,2.5-2,4.6-4.6,4.6c-2.5,0-4.6-2-4.6-4.6s2-4.6,4.6-4.6C87.5,71,89.5,73,89.5,75.5"/>
		<path class="st1" d="M40.3,75.5c0,2.5-2,4.6-4.6,4.6c-2.5,0-4.6-2-4.6-4.6s2-4.6,4.6-4.6C38.2,71,40.3,73,40.3,75.5"/>
		<path class="st1" d="M73.6,43.7c0,3.3-5.9,6-13.3,6s-13.3-2.7-13.3-6s5.9-6,13.3-6S73.6,40.3,73.6,43.7"/>
		<path class="st6" d="M70.4,39.7c2,1.1,3.2,2.4,3.2,3.9c0,1-0.6,2-1.5,2.8c4.9,2.8,9.9,6.5,11.5,10.7c1.1,2.7,1.6,5.7,1.6,8.8v5
			c0.4,0,0.7,0.1,1.1,0.2c0-0.1,0-0.1,0-0.2c0-2.1,0.6-4.1,1.7-5.8c0-1.8-0.2-3.6-0.6-5.3c-0.1-0.3-0.1-0.6-0.2-0.9
			C85.1,50.1,78.7,43,70.4,39.7"/>
		<path class="st6" d="M50.3,39.7c-10.3,4-17.6,14-17.6,25.8c0,1.2,0.1,2.4,0.2,3.6c0.8-0.3,1.7-0.5,2.6-0.7V66
			c0-2.6,0.4-5.2,1.2-7.6c1.5-4.7,6.9-8.8,12.1-11.8c-1.1-0.9-1.7-1.9-1.7-2.9C47.1,42.2,48.3,40.8,50.3,39.7"/>
		<path class="st12" d="M72,46.5c-2.2,1.9-6.6,3.2-11.7,3.2c-5,0-9.3-1.2-11.6-3.1c-5.2,3-10.6,7.1-12.1,11.8
			c-0.8,2.4-1.2,4.9-1.2,7.6v2.5c1.9-0.4,3.8-0.6,5.8-0.6c13.1,0,24.2,8.9,27.5,20.9c2.3-6.1,6.5-11.3,11.8-14.8
			c0.6-1.8,2.3-3,4.3-3c0.1,0,0.1,0,0.2,0v-5c0-3.1-0.6-6.1-1.6-8.8C81.9,52.9,77,49.2,72,46.5"/>
		<path class="st12" d="M85,71c-2,0-3.7,1.3-4.3,3c1.7-1.1,3.6-2.1,5.6-2.8c0,0,0,0,0,0C85.9,71,85.4,71,85,71"/>
		<g>
			<defs>
				<rect id="SVGID_13_" x="31.1" y="37.6" width="58.4" height="64"/>
			</defs>
			<clipPath id="SVGID_14_">
				<use xlink:href="#SVGID_13_"  style="overflow:visible;"/>
			</clipPath>
			<path class="st15" d="M60.3,37.6c-0.7,0-1.4,0-2.1,0.1c-3.1,0.2-5.9,1-7.9,2c-2,1.1-3.2,2.4-3.2,3.9c0,3.3,5.9,6,13.3,6
				c7.3,0,13.3-2.7,13.3-6c0-1.5-1.2-2.9-3.2-3.9h0c-0.1,0-0.1-0.1-0.2-0.1C67.8,38.4,64.2,37.6,60.3,37.6"/>
		</g>
		<g>
			<defs>
				<rect id="SVGID_15_" x="12.7" y="67.9" width="57.2" height="80.1"/>
			</defs>
			<clipPath id="SVGID_16_">
				<use xlink:href="#SVGID_15_"  style="overflow:visible;"/>
			</clipPath>
			<path class="st16" d="M55.1,123.6c-0.4,0.3-0.9,0.5-1.3,0.8c0.3,0.3,0.7,0.6,1,1C54.8,124.8,55,124.2,55.1,123.6 M12.8,118.1
				c0,0.4,0,0.8,0,1.3v13.7c1.6-2,3.5-3.7,5.7-5.1c1.6-2.5,3.7-4.5,6.8-5.9c-0.5-0.4-1-0.8-1.5-1.2H12.8V118.1"/>
		</g>
		<path class="st17" d="M12.8,97.7v23.1h11.1c-2.5-2.3-4.6-5.1-6.1-8.2C14.8,108.4,13,103.2,12.8,97.7"/>
		<path class="st17" d="M67.2,103.1c0,0.8-0.1,1.6-0.3,2.4c0.2-0.1,0.4-0.3,0.6-0.4C67.4,104.5,67.3,103.8,67.2,103.1 M41.3,67.9
			c-15.8,0-28.6,12.8-28.6,28.6c0,0.4,0,0.9,0,1.3c0.2,5.5,2.1,10.7,5,14.9c-1.6-3.3-2.4-7.1-2.4-11c0-4,0.9-7.7,2.5-11.1
			c-1.1-1.1-2-2.4-2.9-3.7c0,0,4.9-14.7,26.7-14.7s25.6,15.4,25.6,15.4v7.7c0.3-2.3,0.8-4.4,1.6-6.5C65.5,76.7,54.4,67.9,41.3,67.9"
			/>
		<path class="st18" d="M17.8,90.6c-1.6,3.4-2.5,7.1-2.5,11.1c0,8.3,3.9,15.7,9.9,20.4c2.9-1.3,6.6-2,11.7-2c0.2,0,0.4,0,0.6,0
			c0.2,0,0.4,0,0.7,0c7.9,0.1,12.5,1.7,15.5,4.4c0.5-0.2,0.9-0.5,1.3-0.8c1.7-7.3,6-13.7,11.9-18.1c0.1-0.8,0.2-1.6,0.3-2.4
			c-0.1-1.2-0.2-2.3-0.2-3.5H38.7C30.4,99.6,23,96.1,17.8,90.6"/>
		<path class="st17" d="M41.6,72.2c-21.9,0-26.7,14.7-26.7,14.7c5.1,7.7,13.9,12.7,23.8,12.7H67c0-0.1,0-0.3,0-0.4
			c0-0.1,0-0.2,0-0.3c0-1.2,0.1-2.4,0.3-3.6v-7.7C67.2,87.6,63.5,72.2,41.6,72.2"/>
		<path class="st1" d="M231.6,119.4c0,15.8-12.8,28.6-28.6,28.6h-28.6v-28.6c0-15.8,12.8-28.6,28.6-28.6
			C218.8,90.8,231.6,103.6,231.6,119.4"/>
		<rect x="174.5" y="96.4" class="st1" width="57.2" height="24.5"/>
		<path class="st1" d="M231.6,96.4c0,15.8-12.8,28.6-28.6,28.6c-15.8,0-28.6-12.8-28.6-28.6c0-15.8,12.8-28.6,28.6-28.6
			C218.8,67.9,231.6,80.7,231.6,96.4"/>
		<path class="st1" d="M229,101.6c0,14.3-11.6,26-26,26c-14.3,0-26-11.6-26-26s11.6-26,26-26C217.4,75.7,229,87.3,229,101.6"/>
		<path class="st1" d="M229,87.6v12h-28.6c-9.9,0-18.6-5-23.8-12.7c0,0,4.9-14.7,26.7-14.7C225.2,72.2,229,87.6,229,87.6"/>
		<path class="st17" d="M231.6,120.8h-2.4c0.8,0.8,1.5,1.8,2.1,2.8C231.4,122.7,231.5,121.8,231.6,120.8"/>
		<g>
			<defs>
				<rect id="SVGID_17_" x="174.5" y="67.9" width="57.2" height="80.1"/>
			</defs>
			<clipPath id="SVGID_18_">
				<use xlink:href="#SVGID_17_"  style="overflow:visible;"/>
			</clipPath>
			<path class="st19" d="M231.7,96.4L231.7,96.4C231.6,96.4,231.6,96.4,231.7,96.4c-0.1,6.1-1.9,11.7-5.1,16.3
				c-0.8,1.7-1.8,3.3-2.9,4.8c2.3,0.8,4.1,2,5.5,3.4h2.5V96.4"/>
		</g>
		<path class="st17" d="M203,67.9c-13.5,0-24.8,9.3-27.8,21.9c1.5,0.2,2.8,0.7,4,1.4c0.1-0.2,0.2-0.4,0.3-0.6
			c-1.1-1.1-2-2.4-2.9-3.7c0,0,4.9-14.7,26.7-14.7c21.9,0,25.6,15.4,25.6,15.4v12h0c0.1,0.7,0.1,1.3,0.1,2c0,3.9-0.9,7.7-2.5,11
			c3.2-4.6,5-10.2,5-16.2c0,0,0-0.1,0-0.1C231.6,80.6,218.8,67.9,203,67.9"/>
		<path class="st18" d="M179.5,90.6c-0.1,0.2-0.2,0.4-0.3,0.6c3,1.8,4.9,5.1,4.9,8.8c0,0.1,0,0.1,0,0.2c0.8,0.3,1.7,0.7,2.5,1.1
			c0,0,0,0,0,0.1c6.7,3.3,11.9,9.2,14.4,16.3c2.8-1,6.4-1.6,11-1.7c0.1,0,0.2,0,0.3,0c0.1,0,0.2,0,0.3,0c4.7,0,8.2,0.6,10.9,1.5
			c3.3-4.4,5.3-9.8,5.3-15.8c0-0.7,0-1.4-0.1-2h-28.5C192.2,99.6,184.8,96.1,179.5,90.6"/>
		<path class="st17" d="M203.4,72.2c-21.9,0-26.7,14.7-26.7,14.7c5.1,7.7,13.9,12.7,23.8,12.7H229v-12
			C229,87.6,225.2,72.2,203.4,72.2"/>
		<path class="st1" d="M127,99.2c0,16.6-13.4,30-30,30c-16.6,0-30-13.4-30-30c0-16.6,13.4-30,30-30C113.6,69.2,127,82.6,127,99.2"/>
		<path class="st1" d="M124.3,104.7c0,15.1-12.2,27.3-27.3,27.3c-15.1,0-27.3-12.2-27.3-27.3c0-15.1,12.2-27.3,27.3-27.3
			C112.1,77.4,124.3,89.6,124.3,104.7"/>
		<path class="st1" d="M67.6,94.6c4.5,3.5,10.1,5.5,16.2,5.5c14.7,0,26.6-11.9,26.6-26.6c0-0.4,0-0.8-0.1-1.3
			c-4-1.9-8.4-3.1-13.1-3.1C82.2,69.2,69.8,80.2,67.6,94.6"/>
		<path class="st1" d="M107.8,71c0-5.9-4.8-10.8-10.8-10.8c-5.9,0-10.7,4.8-10.7,10.8c0,5.9,4.8,10.8,10.7,10.8
			C102.9,81.7,107.8,76.9,107.8,71"/>
		<g>
			<defs>
				<rect id="SVGID_19_" x="67" y="60.2" width="60.1" height="71.8"/>
			</defs>
			<clipPath id="SVGID_20_">
				<use xlink:href="#SVGID_19_"  style="overflow:visible;"/>
			</clipPath>
			<path class="st20" d="M86.3,71.2c-10.1,3.9-17.6,13.1-19,24.1c-0.2,1.2-0.2,2.4-0.3,3.6v0.6c0,1.9,0.2,3.8,0.6,5.6
				c0.7-0.5,1.4-1,2.2-1.4c0.1-2.4,0.5-4.7,1.1-7c-1.2-0.6-2.3-1.4-3.3-2.2C69.2,83.9,76.5,75.1,86.3,71.2
				C86.3,71.2,86.3,71.2,86.3,71.2"/>
		</g>
		<path class="st21" d="M110.3,72.3c0,0.4,0.1,0.8,0.1,1.2c0,2.4-0.3,4.7-0.9,6.9c3.6,1.9,6.8,4.5,9.2,7.7c0.5-2.4,1.4-4.6,2.5-6.7
			C118.4,77.6,114.6,74.4,110.3,72.3"/>
		<path class="st22" d="M70.9,96.8c-0.7,2.2-1.1,4.5-1.1,7c1.5-0.9,3-1.6,4.6-2.3c1.4-0.7,3-1.3,4.9-1.7
			C76.3,99.2,73.4,98.2,70.9,96.8 M109.5,80.4c-2.5,9.3-9.9,16.7-19.4,19c2.8,0.4,5.3,1.1,7.2,2.1c4.5,1.8,8.6,4.6,11.8,8.1
			c0.8-0.6,1.7-0.9,2.8-0.9c0.2,0,0.5,0,0.7,0.1c1.2-1.5,2.6-2.9,4-4.1c-0.1-0.3-0.1-0.6-0.1-0.9c0,0,0-0.1,0-0.1
			c0-1.6,0.9-3,2.2-3.7c-0.4-1.9-0.7-3.9-0.7-5.9c0-2,0.2-4,0.6-5.8C116.3,84.9,113.1,82.3,109.5,80.4"/>
		<path class="st21" d="M107.8,71.1c-0.1,5.9-4.9,10.6-10.7,10.6c-5.8,0-10.6-4.7-10.7-10.5c-9.8,3.8-17,12.7-18.7,23.3
			c3.4,2.6,7.4,4.4,11.7,5.2c2-0.4,4.2-0.7,6.5-0.7c1.5,0,2.9,0.1,4.3,0.3c11.6-2.9,20.3-13.3,20.3-25.9c0-0.4,0-0.8-0.1-1.2
			c0,0,0,0,0-0.1C109.5,71.8,108.6,71.5,107.8,71.1"/>
		<path class="st21" d="M97.2,60.2h-0.4c-3.7,0.1-7,2-8.8,4.9c-1.1,1.7-1.7,3.7-1.7,5.8c0,5.9,4.8,10.8,10.7,10.8
			c5.9,0,10.8-4.8,10.8-10.8c0-5.7-4.4-10.3-10-10.7C97.6,60.2,97.4,60.2,97.2,60.2"/>
		<path class="st1" d="M171.7,94c0,14.8-12,26.8-26.8,26.8c-14.8,0-26.8-12-26.8-26.8s12-26.8,26.8-26.8
			C159.7,67.2,171.7,79.2,171.7,94"/>
		<path class="st1" d="M169,104.9c0,13.3-10.8,24.1-24.1,24.1c-13.3,0-24.1-10.8-24.1-24.1V94.5c0-2.6,0.4-5,1.2-7.4
			c3.1-9.7,22.9-16.7,22.9-16.7s19,6.5,22.5,15.5c1,2.7,1.6,5.6,1.6,8.6V104.9"/>
		<path class="st1" d="M173.2,103.7c0,2.4-2,4.4-4.4,4.4c-2.4,0-4.4-2-4.4-4.4s2-4.4,4.4-4.4C171.3,99.3,173.2,101.3,173.2,103.7"/>
		<path class="st1" d="M125.4,103.7c0,2.4-2,4.4-4.4,4.4c-2.4,0-4.4-2-4.4-4.4s2-4.4,4.4-4.4C123.4,99.3,125.4,101.3,125.4,103.7"/>
		<path class="st1" d="M157.8,72.8c0,3.2-5.8,5.8-12.9,5.8c-7.1,0-12.9-2.6-12.9-5.8c0-3.2,5.8-5.8,12.9-5.8
			C152,67,157.8,69.6,157.8,72.8"/>
		<path class="st23" d="M154.7,69c1.9,1,3.1,2.3,3.1,3.8c0,1-0.5,1.9-1.5,2.7c4.8,2.7,9.6,6.3,11.2,10.4c0.6,1.6,1.1,3.3,1.3,5.1
			c0.8-0.5,1.7-0.8,2.7-1.1c-0.6-4-2.1-7.8-4.3-11c-1.7-2.5-3.9-4.7-6.3-6.6C158.9,71,156.9,69.9,154.7,69"/>
		<path class="st23" d="M135.2,69c-8.2,3.2-14.5,10.4-16.4,19.1c-0.4,1.9-0.6,3.8-0.6,5.8c0,2,0.2,4,0.7,5.9
			c0.6-0.4,1.3-0.6,2.1-0.6v-4.8c0-2.6,0.4-5,1.2-7.4c1.5-4.6,6.7-8.5,11.7-11.5c-1-0.8-1.6-1.8-1.6-2.8
			C132.1,71.4,133.2,70,135.2,69"/>
		<path class="st24" d="M156.3,75.5c-2.2,1.8-6.4,3.1-11.4,3.1c-4.8,0-9-1.2-11.2-3c-5.1,2.9-10.3,6.9-11.7,11.5
			c-0.8,2.3-1.2,4.8-1.2,7.4v4.8c0.1,0,0.1,0,0.2,0c1,0,1.8,0.3,2.6,0.8c3.8-1.8,8.1-2.9,12.6-2.9c7.4,0,14.2,2.8,19.6,7.4
			c2.3-1.9,5-3.4,7.8-4.5c0-0.1,0-0.1,0-0.2c0-3.8,2.1-7.2,5.2-9c-0.3-1.8-0.7-3.5-1.3-5.1C165.9,81.8,161,78.2,156.3,75.5"/>
		<g>
			<defs>
				<rect id="SVGID_21_" x="116.6" y="67" width="56.6" height="62.1"/>
			</defs>
			<clipPath id="SVGID_22_">
				<use xlink:href="#SVGID_21_"  style="overflow:visible;"/>
			</clipPath>
			<path class="st25" d="M121,99.3c-2.4,0-4.4,1.9-4.4,4.3v0.2c0,0.3,0,0.5,0.1,0.8c2.1-1.8,4.4-3.3,6.9-4.5
				C122.9,99.6,122,99.3,121,99.3"/>
		</g>
		<path class="st23" d="M144.9,67c-3.9,0-7.4,0.8-9.8,2c-1.9,1-3.1,2.3-3.1,3.8c0,3.2,5.8,5.8,12.9,5.8c7.1,0,12.9-2.6,12.9-5.8
			c0-1.4-1.2-2.8-3.1-3.8c0,0,0,0,0,0c-0.9-0.5-2.1-0.9-3.3-1.3C149.4,67.3,147.3,67,144.9,67"/>
		<path class="st1" d="M67.4,149c0,16.2-11.4,29.4-29.8,29.4c-18.5,0-29.8-13.2-29.8-29.4s11.1-25.6,29.6-25.6
			C55.8,123.3,67.4,132.7,67.4,149"/>
		<path class="st1" d="M64.1,161.5c0,15.9-10.6,28.9-26.5,28.9c-15.9,0-26.5-13-26.5-28.9v-12.5c0-3.1,1.7-6.1,2.6-8.8
			c3.8-11.6,5.6-20.1,23.9-20.1c18.3,0,19.2,7.8,23.4,18.6c1.2,3.2,3.1,6.7,3.1,10.3V161.5"/>
		<path class="st1" d="M68,160c0,2.9-2.4,5.3-5.3,5.3c-2.9,0-5.3-2.4-5.3-5.3c0-2.9,2.4-5.3,5.3-5.3C65.6,154.7,68,157.1,68,160"/>
		<path class="st1" d="M17.8,160c0,2.9-2.4,5.3-5.3,5.3c-2.9,0-5.3-2.4-5.3-5.3c0-2.9,2.4-5.3,5.3-5.3
			C15.5,154.7,17.8,157.1,17.8,160"/>
		<path class="st1" d="M14.2,143.8c-1.6,4.6-2.7,12.1-3.1,12.4c-0.3,0.2-1.6-0.3-1.9-0.8c-1.5-2.8-2.4-10.5,1.6-17.5
			c10.7-18.4,7.5-3.7,7.1-2.7C17.7,136.3,16.1,138.4,14.2,143.8"/>
		<path class="st1" d="M60.6,143.8c1.6,4.6,2.7,12.1,3.1,12.4c0.3,0.2,1.6-0.3,1.9-0.8c1.5-2.8,2.4-10.5-1.6-17.5
			c-10.7-18.4-7.5-3.7-7.1-2.7C57.2,136.3,58.8,138.4,60.6,143.8"/>
		<path class="st1" d="M33.1,175.2c-1.2,0-6.3-1-6.3-1.6c0-0.6,5.1-1.6,8.8-4.7c0.3-0.3,2.5,3.1,2.3,4.4
			C37.7,174.4,34.9,175.2,33.1,175.2"/>
		<path class="st1" d="M38.2,170.9c0.3,1.5-0.1,2.9-1.1,3.2c-0.9,0.3-2-0.7-2.3-2.1c-0.3-1.5,0.1-2.9,1.1-3.2
			C36.8,168.5,37.9,169.4,38.2,170.9"/>
		<path class="st1" d="M42.1,175.2c1.2,0,6.3-1,6.3-1.6c0-0.6-5.1-1.6-8.8-4.7c-0.3-0.3-2.5,3.1-2.3,4.4
			C37.5,174.4,40.3,175.2,42.1,175.2"/>
		<path class="st1" d="M37,170.9c-0.3,1.5,0.1,2.9,1.1,3.2c0.9,0.3,2-0.7,2.3-2.1c0.3-1.5-0.1-2.9-1.1-3.2
			C38.4,168.5,37.3,169.4,37,170.9"/>
		<path class="st26" d="M18.5,128c-6.9,4.3-10.7,11.5-10.7,21c0,2.6,0.3,5.1,0.8,7.5c0.3-0.3,0.6-0.5,0.9-0.8
			c-0.1-0.1-0.2-0.2-0.3-0.3c-0.7-1.3-1.3-3.7-1.3-6.6c0-3.3,0.8-7.2,2.9-10.9c4.1-7,6.1-9.2,7.1-9.2c0,0,0.1,0,0.1,0
			C18.2,128.5,18.3,128.2,18.5,128"/>
		<g>
			<defs>
				<rect id="SVGID_23_" x="7.2" y="120" width="60.7" height="70.4"/>
			</defs>
			<clipPath id="SVGID_24_">
				<use xlink:href="#SVGID_23_"  style="overflow:visible;"/>
			</clipPath>
			<path class="st27" d="M37.6,169.5c0.4-0.5,0.9-0.8,1.3-0.8c0.1,0,0.2,0,0.3,0.1c0.1,0,0.2,0.1,0.3,0.2c0,0,0,0,0,0
				c3.7,3.1,8.8,4.1,8.8,4.7c0,0.6-5.1,1.6-6.3,1.6c-1.4,0-3.4-0.5-4.3-1.2c-0.1,0-0.1-0.1-0.2-0.1c-0.1,0.1-0.1,0.1-0.2,0.1
				c-0.9,0.7-2.9,1.2-4.3,1.2c-1.2,0-6.3-1-6.3-1.6c0-0.6,5.1-1.6,8.8-4.7c0,0,0,0,0,0c0.1-0.1,0.2-0.1,0.3-0.2
				c0.1,0,0.2-0.1,0.3-0.1C36.7,168.7,37.2,169,37.6,169.5 M38.3,120H37c-5,0.1-8.8,0.8-11.7,2c-3.1,1.4-5.2,3.4-6.8,5.9
				c-0.2,0.2-0.3,0.5-0.4,0.7c0.5,0.1,0.7,0.8,0.7,1.8c0,1.8-0.6,4.3-0.7,4.7c-0.3,1-1.9,3.2-3.8,8.6c-1.2,3.5-2.1,8.5-2.7,11
				c0.3-0.1,0.6-0.1,1-0.1c2.9,0,5.3,2.4,5.3,5.3c0,2.9-2.4,5.3-5.3,5.3c-0.4,0-0.8-0.1-1.3-0.1c1.5,14.2,11.7,25.2,26.3,25.2
				s24.8-11,26.3-25.2c-0.4,0.1-0.8,0.1-1.2,0.1c-2.9,0-5.3-2.4-5.3-5.3c0-1.9,1-3.6,2.6-4.6c-1.1-2.5-1.9-5.1-2.3-7.9c0,0,0,0,0,0
				c-2.9,0-5.2-2.3-5.2-5.2c0,0,0-0.1,0-0.1c0-1.9,1-3.5,2.5-4.4c-0.5-2.2-0.8-4.6-0.8-7c0-1.9,0.2-3.7,0.5-5.5
				C51.8,122.1,47.1,120.1,38.3,120"/>
		</g>
		<path class="st28" d="M60,155.5c-1.6,0.9-2.6,2.6-2.6,4.6c0,2.9,2.4,5.3,5.3,5.3c0.4,0,0.8-0.1,1.2-0.1c0.8-0.2,1.5-0.6,2.1-1.1
			C63.5,161.6,61.5,158.7,60,155.5"/>
		<path class="st26" d="M18,128.7c-1,0-3,2.2-7.1,9.2c-2.2,3.7-2.9,7.6-2.9,10.9c0,2.9,0.6,5.3,1.3,6.6c0.1,0.1,0.1,0.2,0.3,0.3
			c0.4,0.3,1.1,0.6,1.4,0.6c0.1,0,0.2,0,0.2,0c0.1-0.1,0.3-0.6,0.4-1.4c0.6-2.4,1.5-7.5,2.7-11c1.9-5.4,3.4-7.6,3.8-8.6
			c0.1-0.4,0.7-2.9,0.7-4.7C18.7,129.5,18.5,128.8,18,128.7C18,128.7,18,128.7,18,128.7"/>
		<path class="st26" d="M35.6,168.9C35.6,168.9,35.6,168.9,35.6,168.9c-3.7,3.1-8.8,4.1-8.8,4.7c0,0.6,5.1,1.6,6.3,1.6
			c1.4,0,3.4-0.5,4.3-1.2c-0.1,0-0.2,0.1-0.2,0.1c-0.1,0-0.2,0.1-0.3,0.1c-0.8,0-1.7-0.9-2-2.2c-0.1-0.3-0.1-0.6-0.1-1
			C34.7,170.1,35.1,169.3,35.6,168.9"/>
		<path class="st26" d="M36.3,168.7c-0.1,0-0.2,0-0.3,0.1c-0.1,0-0.2,0.1-0.3,0.2c-0.5,0.4-0.9,1.2-0.9,2.1c0,0.3,0,0.6,0.1,1
			c0.3,1.3,1.1,2.2,2,2.2c0.1,0,0.2,0,0.3-0.1c0.1,0,0.2-0.1,0.2-0.1c0.1,0,0.1-0.1,0.2-0.1c-0.5-0.4-0.7-1.2-0.7-2
			c0-0.3,0-0.6,0.1-1c0.1-0.5,0.3-1,0.6-1.4C37.2,169,36.7,168.7,36.3,168.7"/>
		<path class="st26" d="M39.6,168.9c0.5,0.4,0.9,1.2,0.9,2.1c0,0.3,0,0.6-0.1,1c-0.3,1.3-1.1,2.2-2,2.2c-0.1,0-0.2,0-0.3-0.1
			c-0.1,0-0.2-0.1-0.2-0.1c0.9,0.7,2.9,1.2,4.3,1.2c1.2,0,6.3-1,6.3-1.6C48.4,173,43.3,172,39.6,168.9
			C39.6,168.9,39.6,168.9,39.6,168.9"/>
		<path class="st26" d="M38.9,168.7c-0.5,0-1,0.3-1.3,0.8c-0.3,0.4-0.5,0.8-0.6,1.4c-0.1,0.3-0.1,0.6-0.1,1c0,0.9,0.3,1.6,0.7,2
			c0.1,0.1,0.1,0.1,0.2,0.1c0.1,0,0.2,0.1,0.2,0.1c0.1,0,0.2,0.1,0.4,0.1c0.8,0,1.7-0.9,2-2.2c0.1-0.3,0.1-0.6,0.1-1
			c0-0.9-0.3-1.7-0.9-2.1c-0.1-0.1-0.2-0.1-0.3-0.2C39.2,168.7,39.1,168.7,38.9,168.7"/>
		<path class="st1" d="M242.2,144.8c0,16.2-11.4,29.4-29.8,29.4c-18.5,0-29.8-13.2-29.8-29.4c0-16.2,11.1-25.6,29.6-25.6
			C230.6,119.2,242.2,128.5,242.2,144.8"/>
		<path class="st1" d="M238.9,157.3c0,15.9-10.6,28.9-26.5,28.9c-15.9,0-26.5-13-26.5-28.9v-12.5c0-3.1,1.7-6.1,2.6-8.8
			c3.8-11.6,5.6-20.1,23.9-20.1c18.3,0,19.2,7.8,23.4,18.6c1.2,3.2,3.1,6.7,3.1,10.3V157.3"/>
		<path class="st1" d="M242.8,155.9c0,2.9-2.4,5.3-5.3,5.3c-2.9,0-5.3-2.4-5.3-5.3c0-2.9,2.4-5.3,5.3-5.3
			C240.4,150.6,242.8,152.9,242.8,155.9"/>
		<path class="st1" d="M192.6,155.9c0,2.9-2.4,5.3-5.3,5.3c-2.9,0-5.3-2.4-5.3-5.3c0-2.9,2.4-5.3,5.3-5.3
			C190.3,150.6,192.6,152.9,192.6,155.9"/>
		<path class="st1" d="M189,139.7c-1.6,4.6-2.7,12.1-3.1,12.4c-0.3,0.2-1.6-0.3-1.9-0.8c-1.5-2.8-2.4-10.5,1.6-17.5
			c10.7-18.4,7.5-3.7,7.1-2.7C192.5,132.1,190.9,134.3,189,139.7"/>
		<path class="st1" d="M235.4,139.7c1.6,4.6,2.7,12.1,3.1,12.4c0.3,0.2,1.6-0.3,1.9-0.8c1.5-2.8,2.4-10.5-1.6-17.5
			c-10.7-18.4-7.5-3.7-7.1-2.7C232,132.1,233.6,134.3,235.4,139.7"/>
		<path class="st1" d="M207.9,171.1c-1.2,0-6.3-1-6.3-1.6c0-0.6,5.1-1.6,8.8-4.7c0.3-0.3,2.5,3.1,2.3,4.4
			C212.5,170.2,209.7,171.1,207.9,171.1"/>
		<path class="st1" d="M213,166.8c0.3,1.5-0.1,2.9-1.1,3.2c-0.9,0.3-2-0.7-2.3-2.1c-0.3-1.5,0.1-2.9,1.1-3.2
			C211.6,164.3,212.7,165.3,213,166.8"/>
		<path class="st1" d="M216.9,171.1c1.1,0,6.3-1,6.3-1.6c0-0.6-5.1-1.6-8.8-4.7c-0.3-0.3-2.5,3.1-2.3,4.4
			C212.3,170.2,215.1,171.1,216.9,171.1"/>
		<path class="st1" d="M211.8,166.8c-0.3,1.5,0.1,2.9,1.1,3.2c0.9,0.3,2-0.7,2.3-2.1c0.3-1.5-0.1-2.9-1.1-3.2
			C213.2,164.3,212.1,165.3,211.8,166.8"/>
		<path class="st26" d="M231.5,124c0.1,0.2,0.2,0.4,0.3,0.6c1,0.1,3,2.4,7,9.2c2.2,3.7,2.9,7.6,2.9,10.9c0,2.9-0.6,5.3-1.3,6.6
			c0,0.1-0.1,0.1-0.1,0.2c0.4,0.2,0.7,0.5,1.1,0.9c0.6-2.4,0.8-4.9,0.8-7.5C242.2,135.4,238.3,128.3,231.5,124"/>
		<g>
			<defs>
				<rect id="SVGID_25_" x="182" y="115.9" width="60.7" height="70.4"/>
			</defs>
			<clipPath id="SVGID_26_">
				<use xlink:href="#SVGID_25_"  style="overflow:visible;"/>
			</clipPath>
			<path class="st29" d="M212.4,165.4c0.4-0.5,0.9-0.8,1.3-0.8c0.1,0,0.2,0,0.4,0.1c0.1,0,0.2,0.1,0.3,0.2c0,0,0,0,0,0
				c3.7,3.1,8.8,4.1,8.8,4.7c0,0.6-5.1,1.6-6.3,1.6c-1.4,0-3.4-0.5-4.3-1.2c-0.1,0-0.1-0.1-0.2-0.1c-0.1,0.1-0.1,0.1-0.2,0.1
				c-0.9,0.7-2.9,1.2-4.3,1.2c-1.2,0-6.3-1-6.3-1.6c0-0.6,5.1-1.6,8.8-4.7c0,0,0,0,0,0c0.1-0.1,0.2-0.1,0.3-0.2
				c0.1,0,0.2-0.1,0.4-0.1C211.5,164.6,212,164.9,212.4,165.4 M212.7,115.9h-0.6c-4.6,0-8.2,0.6-11,1.7c1,2.9,1.6,6,1.6,9.3
				c0,0.1,0,0.2,0,0.3c0,6.1-1.9,11.7-5.1,16.4c-1.6,3.3-3.8,6.3-6.6,8.7c1,1,1.6,2.3,1.6,3.8c0,2.9-2.4,5.3-5.3,5.3
				c-0.4,0-0.8-0.1-1.2-0.1c1.5,14.2,11.7,25.2,26.3,25.2c14.6,0,24.8-11,26.3-25.2c-0.4,0.1-0.8,0.1-1.2,0.1
				c-2.9,0-5.3-2.4-5.3-5.3c0-2.9,2.4-5.3,5.3-5.3c0.2,0,0.4,0,0.6,0c-0.6-2.5-1.5-7.5-2.7-10.9c-1.9-5.4-3.4-7.6-3.8-8.6
				c-0.1-0.4-0.7-2.9-0.7-4.7c0-1,0.2-1.8,0.8-1.8c0,0,0.1,0,0.1,0c-0.1-0.2-0.2-0.4-0.3-0.6c-0.1-0.1-0.1-0.2-0.2-0.3
				C228.4,118.9,223.8,115.9,212.7,115.9"/>
		</g>
		<path class="st30" d="M237.5,150.6c-2.9,0-5.3,2.4-5.3,5.3c0,2.9,2.4,5.3,5.3,5.3c0.4,0,0.8-0.1,1.2-0.1c2.3-0.6,4.1-2.7,4.1-5.2
			c0-0.2,0-0.5,0-0.7c-0.2-1.6-1.1-3-2.4-3.8c-0.4,0.4-1.1,0.7-1.6,0.7c-0.1,0-0.2,0-0.2-0.1c-0.1-0.1-0.3-0.6-0.4-1.5
			C237.9,150.6,237.7,150.6,237.5,150.6"/>
		<path class="st30" d="M191.1,152.1c-2.6,2.2-5.6,4-8.9,5.1c0.5,1.9,2,3.4,3.9,3.9c0.4,0.1,0.8,0.1,1.2,0.1c2.9,0,5.3-2.4,5.3-5.3
			C192.6,154.4,192,153.1,191.1,152.1"/>
		<path class="st26" d="M231.7,124.6c-0.6,0-0.8,0.8-0.8,1.8c0,1.8,0.6,4.3,0.7,4.7c0.3,1,1.9,3.2,3.8,8.6c1.2,3.4,2.1,8.5,2.7,10.9
			c0.2,0.8,0.3,1.4,0.4,1.5c0,0,0.1,0.1,0.2,0.1c0.4,0,1.2-0.4,1.6-0.7c0.1-0.1,0.1-0.1,0.1-0.2c0.7-1.3,1.3-3.7,1.3-6.6
			c0-3.3-0.8-7.2-2.9-10.9C234.7,126.8,232.7,124.6,231.7,124.6"/>
		<path class="st26" d="M210.4,164.8C210.4,164.8,210.4,164.8,210.4,164.8c-3.7,3.1-8.8,4.1-8.8,4.7c0,0.6,5.1,1.6,6.3,1.6
			c1.4,0,3.4-0.5,4.3-1.2c-0.1,0-0.2,0.1-0.2,0.1c-0.1,0-0.2,0.1-0.3,0.1c-0.8,0-1.7-0.9-2-2.2c-0.1-0.3-0.1-0.6-0.1-1
			C209.5,166,209.9,165.1,210.4,164.8"/>
		<path class="st26" d="M211.1,164.6c-0.1,0-0.2,0-0.3,0.1c-0.1,0-0.2,0.1-0.3,0.2c-0.5,0.4-0.9,1.2-0.9,2.1c0,0.3,0,0.6,0.1,1
			c0.3,1.3,1.1,2.2,2,2.2c0.1,0,0.2,0,0.3-0.1c0.1,0,0.2-0.1,0.2-0.1c0.1,0,0.1-0.1,0.2-0.1c-0.5-0.4-0.7-1.2-0.7-2
			c0-0.3,0-0.6,0.1-1c0.1-0.5,0.3-1,0.6-1.4C212,164.9,211.5,164.6,211.1,164.6"/>
		<path class="st26" d="M214.4,164.8c0.5,0.4,0.9,1.2,0.9,2.1c0,0.3,0,0.6-0.1,1c-0.3,1.3-1.1,2.2-2,2.2c-0.1,0-0.2,0-0.3-0.1
			c-0.1,0-0.2-0.1-0.2-0.1c0.9,0.7,2.9,1.2,4.3,1.2c1.2,0,6.3-1,6.3-1.6C223.2,168.9,218.1,167.9,214.4,164.8
			C214.4,164.8,214.4,164.8,214.4,164.8"/>
		<path class="st26" d="M213.7,164.6c-0.5,0-1,0.3-1.3,0.8c-0.3,0.4-0.5,0.8-0.6,1.4c-0.1,0.3-0.1,0.6-0.1,1c0,0.9,0.3,1.6,0.7,2
			c0.1,0.1,0.1,0.1,0.2,0.1c0.1,0,0.2,0.1,0.2,0.1c0.1,0,0.2,0.1,0.3,0.1c0.8,0,1.7-0.9,2-2.2c0.1-0.3,0.1-0.6,0.1-1
			c0-0.9-0.3-1.7-0.9-2.1c-0.1-0.1-0.2-0.1-0.3-0.2C214,164.6,213.9,164.6,213.7,164.6"/>
		<path class="st1" d="M202.7,127.1c0,15.9-12.9,28.8-28.8,28.8c-15.9,0-28.8-12.9-28.8-28.8s12.9-28.8,28.8-28.8
			C189.8,98.3,202.7,111.2,202.7,127.1"/>
		<path class="st1" d="M200.1,132.3c0,14.5-11.7,26.2-26.2,26.2c-14.5,0-26.2-11.7-26.2-26.2c0-14.5,11.7-26.2,26.2-26.2
			C188.4,106.1,200.1,117.8,200.1,132.3"/>
		<path class="st1" d="M145.6,122.6c4.3,3.3,9.7,5.3,15.6,5.3c14.1,0,25.5-11.4,25.5-25.5c0-0.4,0-0.8-0.1-1.2
			c-3.8-1.9-8.1-2.9-12.6-2.9C159.7,98.3,147.8,108.8,145.6,122.6"/>
		<path class="st1" d="M184.2,100c0-5.7-4.6-10.3-10.3-10.3c-5.7,0-10.3,4.6-10.3,10.3c0,5.7,4.6,10.3,10.3,10.3
			C179.6,110.3,184.2,105.6,184.2,100"/>
		<path class="st31" d="M163.6,100.2c-2.9,1.1-5.5,2.6-7.8,4.5c0,0,0.1,0.1,0.1,0.1C158.1,102.9,160.8,101.3,163.6,100.2
			C163.6,100.2,163.6,100.2,163.6,100.2"/>
		<g>
			<defs>
				<rect id="SVGID_27_" x="145.1" y="89.6" width="57.6" height="68.9"/>
			</defs>
			<clipPath id="SVGID_28_">
				<use xlink:href="#SVGID_27_"  style="overflow:visible;"/>
			</clipPath>
			<path class="st32" d="M186.7,101.2c0,0.4,0.1,0.8,0.1,1.2c0,2.3-0.3,4.5-0.9,6.6c8.4,4.4,14.2,13.2,14.2,23.3
				c0,4-0.9,7.7-2.5,11.1c3.2-4.6,5-10.1,5.1-16v-0.6c0-3.2-0.6-6.4-1.6-9.3C198.6,110.4,193.4,104.6,186.7,101.2"/>
		</g>
		<path class="st30" d="M185.9,109c-2.4,9-9.6,16.1-18.8,18.2c0.1,0.7,0.1,1.5,0.1,2.2c0,2.5-0.1,4.7-0.4,6.5c1.2,0.9,2,2.4,2,4
			c0,2.8-2.3,5.1-5.1,5.1c0,0,0,0,0,0c-0.5,3.5-1.6,6.7-3.2,9.7c3.9,2.3,8.5,3.7,13.4,3.7c14.5,0,26.2-11.7,26.2-26.2
			C200.1,122.2,194.3,113.4,185.9,109"/>
		<path class="st31" d="M184.2,100.1c-0.1,5.6-4.7,10.1-10.3,10.1c-5.6,0-10.2-4.5-10.3-10c-2.8,1.1-5.4,2.7-7.7,4.5
			c6.4,5.6,10.7,13.7,11.3,22.5c11.2-2.7,19.6-12.8,19.6-24.9c0-0.4,0-0.8-0.1-1.2c0,0,0,0,0-0.1C185.9,100.8,185,100.4,184.2,100.1
			"/>
		<path class="st31" d="M174,89.6h-0.3c-1.8,0-3.5,0.5-5,1.4c-3.1,1.8-5.2,5.1-5.2,9c0,5.7,4.6,10.3,10.3,10.3
			c5.7,0,10.3-4.6,10.3-10.3c0-3.7-2-7-4.9-8.8c-1.2-0.7-2.6-1.2-4-1.4C174.9,89.7,174.4,89.6,174,89.6"/>
		<path class="st1" d="M117.4,130.9c0,17.4-14.1,31.6-31.6,31.6c-17.4,0-31.6-14.1-31.6-31.6c0-17.4,14.1-31.6,31.6-31.6
			C103.3,99.3,117.4,113.5,117.4,130.9"/>
		<path class="st1" d="M114.2,143.8c0,15.6-12.8,28.4-28.4,28.4c-15.6,0-28.4-12.8-28.4-28.4v-12.3c0-3,0.5-5.9,1.4-8.7
			c3.7-11.4,27-19.7,27-19.7s22.4,7.6,26.5,18.3c1.2,3.1,1.9,6.5,1.9,10.1V143.8"/>
		<path class="st1" d="M119.2,142.4c0,2.9-2.3,5.2-5.2,5.2c-2.9,0-5.2-2.3-5.2-5.2c0-2.9,2.3-5.2,5.2-5.2
			C116.9,137.2,119.2,139.5,119.2,142.4"/>
		<path class="st1" d="M62.9,142.4c0,2.9-2.3,5.2-5.2,5.2s-5.2-2.3-5.2-5.2c0-2.9,2.3-5.2,5.2-5.2S62.9,139.5,62.9,142.4"/>
		<path class="st1" d="M101,105.9c0,3.8-6.8,6.9-15.1,6.9c-8.4,0-15.1-3.1-15.1-6.9c0-3.8,6.8-6.9,15.1-6.9
			C94.2,99.1,101,102.2,101,105.9"/>
		<path class="st31" d="M74.4,101.5c-2.7,1-5.1,2.4-7.4,4.1c-5.9,4.4-10.2,10.7-11.9,18.1c-0.1,0.6-0.3,1.2-0.4,1.8
			c-0.3,1.8-0.5,3.6-0.5,5.5c0,2.4,0.3,4.7,0.8,7c0.7-0.4,1.5-0.7,2.4-0.7v-5.7c0-3,0.5-5.9,1.4-8.7c1.7-5.4,7.8-10.1,13.8-13.5
			c-1.2-1-1.9-2.1-1.9-3.4C70.7,104.2,72.1,102.7,74.4,101.5"/>
		<path class="st31" d="M97.3,101.5c2.3,1.2,3.6,2.8,3.6,4.5c0,1.2-0.6,2.3-1.8,3.2c2.8,1.6,5.7,3.5,8.1,5.6
			c-0.1-0.4-0.2-0.8-0.2-1.2c0-1.6,0.8-3,2-3.9C105.9,106.1,101.9,103.3,97.3,101.5"/>
		<path class="st30" d="M99.2,109.2c-2.5,2.2-7.6,3.6-13.4,3.6c-5.7,0-10.6-1.4-13.2-3.5c-6,3.5-12.1,8.1-13.8,13.5
			c-0.9,2.7-1.4,5.7-1.4,8.7v5.7c0.1,0,0.2,0,0.2,0c2.9,0,5.2,2.3,5.2,5.2c0,2.9-2.3,5.2-5.2,5.2c1.9,13.8,13.7,24.5,27.9,24.6H86
			c11.6-0.1,21.5-7.2,25.9-17.2c-1.7-3-2.8-6.3-3.3-9.8c0,0,0,0,0,0c-2.8,0-5.1-2.3-5.1-5.1c0-1.7,0.8-3.2,2.1-4.1
			c-0.3-1.8-0.5-4-0.5-6.5c0-4.6,1-9.1,2.9-13.2c-0.3-0.5-0.6-1-0.7-1.5C104.9,112.6,102.1,110.8,99.2,109.2"/>
		<g>
			<defs>
				<rect id="SVGID_29_" x="52.5" y="99.1" width="66.7" height="73.1"/>
			</defs>
			<clipPath id="SVGID_30_">
				<use xlink:href="#SVGID_29_"  style="overflow:visible;"/>
			</clipPath>
			<path class="st33" d="M57.7,137.2c-2.8,0-5.2,2.3-5.2,5.1v0.2c0.1,2.8,2.4,5.1,5.2,5.1c0,0,0,0,0,0c2.9,0,5.2-2.3,5.2-5.2
				C62.9,139.5,60.6,137.2,57.7,137.2"/>
		</g>
		<path class="st31" d="M85.8,99.1c-2.3,0-4.6,0.2-6.5,0.7c-1.9,0.4-3.6,1-4.9,1.7c-2.3,1.2-3.7,2.8-3.7,4.5c0,3.8,6.8,6.9,15.1,6.9
			s15.1-3.1,15.1-6.9c0-1.7-1.4-3.3-3.6-4.5c-1.9-1-4.4-1.7-7.2-2.1C88.8,99.2,87.3,99.1,85.8,99.1"/>
		<path class="st1" d="M167.2,129.5c0,25.6-13.4,16.4-30.5,16.4c-17.1,0-31.5,7.5-31.5-16.4c0-17.1,13.9-32.2,31-32.2
			C153.3,97.3,167.2,112.3,167.2,129.5"/>
		<path class="st1" d="M163.9,141.4c0,15.3-12.5,27.8-27.8,27.8c-15.3,0-27.8-12.5-27.8-27.8v-12c0-3,0.5-5.8,1.3-8.5
			c3.6-11.2,9.5-19.3,26.5-19.3c17,0,22,7.5,26,17.9c1.2,3.1,1.8,6.4,1.8,9.9V141.4"/>
		<path class="st1" d="M168.8,140.1c0,2.8-2.3,5.1-5.1,5.1c-2.8,0-5.1-2.3-5.1-5.1c0-2.8,2.3-5.1,5.1-5.1
			C166.5,135,168.8,137.2,168.8,140.1"/>
		<path class="st1" d="M113.7,140.1c0,2.8-2.3,5.1-5.1,5.1c-2.8,0-5.1-2.3-5.1-5.1c0-2.8,2.3-5.1,5.1-5.1
			C111.4,135,113.7,137.2,113.7,140.1"/>
		<path class="st1" d="M112.2,113.1v5.1h26.4c9.2,0,17.2,1.3,22-5.8c0,0-4.5-13.3-24.7-13.3C115.6,99.1,112.2,113.1,112.2,113.1"/>
		<path class="st1" d="M107.1,113.5c0,2.7,2.2,4.8,4.8,4.8c2.7,0,4.8-2.2,4.8-4.8c0-2.7-2.2-4.8-4.8-4.8
			C109.3,108.7,107.1,110.8,107.1,113.5"/>
		<path class="st13" d="M136.2,97.3c-4.5,0-8.7,1-12.6,2.9c-2.5,1.2-4.8,2.7-6.9,4.5c-1.5,1.2-2.8,2.6-4,4.1c0.5,0.1,1,0.2,1.4,0.4
			c2.6-4.1,8.7-10.1,21.8-10.1c20.2,0,24.7,13.3,24.7,13.3c-0.3,0.5-0.6,0.9-1,1.3c0.9,1.8,1.8,3.7,2.6,5.8c1.2,3.1,1.8,6.4,1.8,9.9
			v5.6c1.1,0,2.1,0.4,2.9,1c0.2-1.9,0.4-4,0.4-6.5c0-0.7,0-1.5-0.1-2.2c-0.6-8.8-4.9-16.9-11.3-22.5c0,0-0.1-0.1-0.1-0.1
			C150.4,100.1,143.6,97.3,136.2,97.3"/>
		<path class="st13" d="M108,116.3c-1.8,4.1-2.9,8.6-2.9,13.2c0,2.5,0.2,4.6,0.5,6.5c0.8-0.6,1.7-0.9,2.8-1v-5.6
			c0-3,0.5-5.8,1.3-8.5c0.3-0.9,0.6-1.9,1-2.8C109.6,117.9,108.6,117.2,108,116.3"/>
		<path class="st14" d="M159.6,113.8c-3.4,4-8.2,4.6-13.8,4.6c-2.3,0-4.7-0.1-7.2-0.1h-25.7c-0.3,0.1-0.6,0.1-1,0.1
			c-0.4,0-0.8-0.1-1.2-0.2c-0.3,0.9-0.7,1.8-1,2.8c-0.9,2.7-1.3,5.5-1.3,8.5v5.6c0.1,0,0.2,0,0.2,0c2.8,0,5.1,2.3,5.1,5.1
			c0,2.8-2.3,5.1-5.1,5.1c1.8,13.6,13.5,24.1,27.5,24.1c14,0,25.7-10.5,27.5-24.1c-2.8,0-5.1-2.3-5.1-5.1c0-2.8,2.3-5.1,5.1-5.1
			c0.1,0,0.2,0,0.2,0v-5.6c0-3.5-0.6-6.8-1.8-9.9C161.3,117.5,160.5,115.5,159.6,113.8"/>
		<path class="st14" d="M163.7,135c-2.8,0-5.1,2.3-5.1,5.1c0,2.8,2.3,5.1,5.1,5.1c2.8,0,5.1-2.3,5.1-5.1
			C168.8,137.2,166.5,135,163.7,135"/>
		<path class="st14" d="M108.6,135c-2.8,0-5.1,2.3-5.1,5.1c0,2.8,2.3,5.1,5.1,5.1c2.8,0,5.1-2.3,5.1-5.1
			C113.7,137.2,111.4,135,108.6,135"/>
		<path class="st13" d="M135.8,99.1c-13.1,0-19.2,5.9-21.8,10.1c1.6,0.8,2.7,2.4,2.7,4.3c0,2.3-1.6,4.3-3.8,4.7h25.7
			c2.5,0,4.9,0.1,7.2,0.1c6.1,0,11.3-0.7,14.8-5.9C160.5,112.5,156.1,99.1,135.8,99.1"/>
		<path class="st13" d="M111.9,108.7c-1,0-2,0.3-2.8,0.9c-1.2,0.9-2,2.3-2,3.9c0,2.7,2.2,4.8,4.8,4.8c2.7,0,4.8-2.2,4.8-4.8
			c0-1.9-1.1-3.5-2.7-4.3c-0.4-0.2-0.9-0.4-1.4-0.4C112.4,108.7,112.2,108.7,111.9,108.7"/>
		<g>
			<defs>
				<path id="SVGID_31_" d="M122.4,17C60.5,17.4,10.8,67.9,11.2,129.7c0.4,61.8,50.9,111.6,112.8,111.2
					c61.8-0.4,111.6-50.9,111.2-112.8c-0.4-61.6-50.5-111.2-111.9-111.2C122.9,16.9,122.6,16.9,122.4,17"/>
			</defs>
			<clipPath id="SVGID_32_">
				<use xlink:href="#SVGID_31_"  style="overflow:visible;"/>
			</clipPath>
			<g class="st34">
				<defs>
					<rect id="SVGID_33_" x="-165.1" y="-366.7" width="1518.6" height="1227"/>
				</defs>
				<clipPath id="SVGID_34_">
					<use xlink:href="#SVGID_33_"  style="overflow:visible;"/>
				</clipPath>
				<path class="st35" d="M212.7,193.4c0.1,18.5-14.7,33.5-33.2,33.7c-10.6,0.1-33.4,0.2-33.4,0.2s-0.2-25.5-0.2-33.4
					c-0.1-18.5,14.7-33.5,33.2-33.7C197.5,160.1,212.5,175,212.7,193.4"/>
				<polyline class="st35" points="212.8,195.1 145.9,195.6 145.7,167 212.6,166.5 				"/>
				<path class="st36" d="M180.7,209.7l-2.9,0c-12.2,0.1-22.1,10.1-22,22.4l0.4,59.8c0,2.1,1.7,3.8,3.8,3.8c2.1,0,3.8-1.7,3.8-3.8
					l0-1.7c3.3,4.4,8.9,7.1,15.1,7l3.2,0c5.5,0,10.4-2.2,13.8-5.8v0.2c0,2.1,1.7,3.8,3.8,3.8c2.1,0,3.8-1.7,3.8-3.8l-0.4-59.8
					C203,219.5,192.9,209.6,180.7,209.7"/>
				<path class="st35" d="M212.5,166.6c0.1,18.5-14.7,33.5-33.2,33.7c-18.5,0.1-33.5-14.7-33.7-33.2c-0.1-18.5,14.7-33.5,33.2-33.7
					C197.3,133.3,212.4,148.1,212.5,166.6"/>
				<path class="st37" d="M209.5,172.7c0.1,16.8-13.4,30.5-30.2,30.6c-16.8,0.1-30.5-13.4-30.6-30.2c-0.1-16.8,13.4-30.5,30.2-30.6
					C195.7,142.4,209.4,155.9,209.5,172.7"/>
				<polyline class="st37" points="186.5,212.1 172.3,212.2 172.2,198 186.4,197.9 				"/>
				<path class="st37" d="M186.5,210.8c0,3.9-3.1,7.1-7,7.1c-3.9,0-7.1-3.1-7.1-7c0-3.9,3.1-7.1,7-7.1
					C183.2,203.7,186.4,206.9,186.5,210.8"/>
				<path class="st35" d="M209.3,156.3c0.1,7.5,0.1,14,0.1,14s-22.9,0.2-33.4,0.2c-11.6,0.1-21.9-5.7-27.9-14.7
					c0,0,5.6-17.2,31.2-17.4C204.8,138.3,209.3,156.3,209.3,156.3"/>
			</g>
		</g>
		<path class="st38" d="M191.5,178.5c-0.8,0-1.5-0.7-1.5-1.5c0-0.8,0.7-1.5,1.5-1.5c0.8,0,1.5,0.7,1.5,1.5
			C193,177.8,192.4,178.5,191.5,178.5"/>
		<path class="st38" d="M168.3,178.5c-0.8,0-1.5-0.7-1.5-1.5c0-0.8,0.7-1.5,1.5-1.5c0.8,0,1.5,0.7,1.5,1.5
			C169.8,177.8,169.1,178.5,168.3,178.5"/>
		<g>
			<defs>
				<path id="SVGID_35_" d="M122.4,17C60.5,17.4,10.8,67.9,11.2,129.7c0.4,61.8,50.9,111.6,112.8,111.2
					c61.8-0.4,111.6-50.9,111.2-112.8c-0.4-61.6-50.5-111.2-111.9-111.2C122.9,16.9,122.6,16.9,122.4,17"/>
			</defs>
			<clipPath id="SVGID_36_">
				<use xlink:href="#SVGID_35_"  style="overflow:visible;"/>
			</clipPath>
			<g class="st39">
				<defs>
					<rect id="SVGID_37_" x="-165.1" y="-366.7" width="1518.6" height="1227"/>
				</defs>
				<clipPath id="SVGID_38_">
					<use xlink:href="#SVGID_37_"  style="overflow:visible;"/>
				</clipPath>
				<path class="st40" d="M179.9,191.9c-2.1,0-4-1.1-5.1-2.9c-0.2-0.4-0.1-0.8,0.2-1.1c0.4-0.2,0.8-0.1,1.1,0.2
					c0.8,1.3,2.3,2.1,3.8,2.1c1.6,0,3-0.8,3.8-2.1c0.2-0.4,0.7-0.5,1.1-0.2c0.4,0.2,0.5,0.7,0.2,1.1
					C183.9,190.8,182,191.9,179.9,191.9"/>
				<path class="st41" d="M199.1,185c0,2.1-1.7,3.7-3.7,3.7c-2,0-3.7-1.7-3.7-3.7c0-2.1,1.7-3.7,3.7-3.7
					C197.4,181.3,199.1,183,199.1,185"/>
				<path class="st41" d="M168.2,185c0,2.1-1.7,3.7-3.7,3.7c-2,0-3.7-1.7-3.7-3.7c0-2.1,1.7-3.7,3.7-3.7
					C166.5,181.3,168.2,183,168.2,185"/>
				<path class="st42" d="M99.1,172c0.1,18.8-15,34.2-33.8,34.3c-18.8,0.1-34.2-15-34.3-33.8s15-34.2,33.8-34.3
					C83.6,138,99,153.2,99.1,172"/>
				<path class="st43" d="M96.1,178.2c0.1,17.1-13.6,31.1-30.8,31.2c-17.1,0.1-31.1-13.6-31.2-30.8c-0.1-17.1,13.6-31.1,30.8-31.2
					C82,147.3,95.9,161.1,96.1,178.2"/>
				<path class="st42" d="M31.6,167.2c5.1,3.9,11.5,6.2,18.4,6.2c16.7-0.1,30.1-13.7,30-30.4c0-0.5-0.1-1-0.1-1.4
					c-4.5-2.2-9.6-3.4-14.9-3.4C48,138.3,34,150.9,31.6,167.2"/>
				<path class="st42" d="M77,140.1c0-6.7-5.5-12.2-12.3-12.1c-6.7,0.1-12.2,5.6-12.1,12.3c0.1,6.7,5.6,12.2,12.3,12.1
					C71.6,152.3,77.1,146.8,77,140.1"/>
				<polyline class="st43" points="72.6,212.6 58.1,212.7 58,204 72.5,203.9 				"/>
				<path class="st44" d="M89.1,231.8c0-0.7,0-7-5.4-12.4c-4.8-4.8-8.2-7.3-17.8-7.2C44.6,212.3,42,225,41.6,231.7l0,0.3l-3.5,56.8
					c0,2.6,2.1,4.6,4.7,4.6c0.7,0,1.3-0.2,1.9-0.4l-0.4,3.9c0.1,10.2,3.3,9.9,13.5,9.8l16.2-0.1c10.2-0.1,13.4,0.2,13.4-10l-0.4-3.8
					c0.5,0.2,1.1,0.3,1.7,0.3c2.6,0,4.6-2.1,4.6-4.7"/>
				<path class="st43" d="M72.5,211.1c0,4-3.2,7.3-7.2,7.3c-4,0-7.3-3.2-7.3-7.2c0-4,3.2-7.3,7.2-7.3
					C69.3,203.9,72.5,207.1,72.5,211.1"/>
				<path class="st40" d="M76,183.7c-0.8,0-1.5-0.7-1.5-1.5c0-0.8,0.7-1.5,1.5-1.5c0.8,0,1.5,0.7,1.5,1.5
					C77.4,183,76.8,183.7,76,183.7"/>
				<path class="st40" d="M53.8,183.7c-0.8,0-1.5-0.7-1.5-1.5c0-0.8,0.7-1.5,1.5-1.5c0.8,0,1.5,0.7,1.5,1.5
					C55.2,183,54.6,183.7,53.8,183.7"/>
			</g>
		</g>
		<path class="st38" d="M64.9,196.5c-2,0-3.8-1-4.9-2.7c-0.2-0.3-0.1-0.8,0.2-1c0.3-0.2,0.8-0.1,1,0.2c0.8,1.3,2.2,2,3.6,2
			c1.5,0,2.9-0.8,3.6-2c0.2-0.3,0.7-0.4,1-0.2c0.3,0.2,0.4,0.7,0.2,1C68.7,195.5,66.9,196.5,64.9,196.5"/>
		<g>
			<defs>
				<path id="SVGID_39_" d="M122.4,17C60.5,17.4,10.8,67.9,11.2,129.7c0.4,61.8,50.9,111.6,112.8,111.2
					c61.8-0.4,111.6-50.9,111.2-112.8c-0.4-61.6-50.5-111.2-111.9-111.2C122.9,16.9,122.6,16.9,122.4,17"/>
			</defs>
			<clipPath id="SVGID_40_">
				<use xlink:href="#SVGID_39_"  style="overflow:visible;"/>
			</clipPath>
			<g class="st45">
				<defs>
					<rect id="SVGID_41_" x="-165.1" y="-366.7" width="1518.6" height="1227"/>
				</defs>
				<clipPath id="SVGID_42_">
					<use xlink:href="#SVGID_41_"  style="overflow:visible;"/>
				</clipPath>
				<path class="st46" d="M83.2,189.9c0,2-1.6,3.5-3.5,3.5c-2,0-3.5-1.6-3.5-3.5c0-2,1.6-3.5,3.5-3.5
					C81.6,186.4,83.2,188,83.2,189.9"/>
				<path class="st46" d="M53.7,189.9c0,2-1.6,3.5-3.5,3.5c-2,0-3.5-1.6-3.5-3.5c0-2,1.6-3.5,3.5-3.5
					C52.1,186.4,53.7,188,53.7,189.9"/>
				<path class="st47" d="M120.5,217.8l-3.1,0c-13.3,0.1-24,11-23.9,24.3l0.5,65c0,2.3,1.9,4.1,4.1,4.1c2.3,0,4.1-1.9,4.1-4.1l0-3.8
					c3.7,4.3,9.4,6.9,15.7,6.8l3.5,0c6.4,0,12-2.7,15.6-7l0,3.8c0,2.3,1.9,4.1,4.1,4.1c2.3,0,4.1-1.9,4.1-4.1l-0.5-65
					C144.7,228.5,133.8,217.7,120.5,217.8"/>
				<polyline class="st48" points="127,221.2 111.6,221.4 111.5,207.7 126.9,207.6 				"/>
				<path class="st48" d="M127.3,220.8c0,4.3-3.4,7.7-7.6,7.8c-4.3,0-7.7-3.4-7.8-7.6c0-4.3,3.4-7.7,7.6-7.8
					C123.8,213.1,127.3,216.6,127.3,220.8"/>
				<path class="st49" d="M152.9,166.8c0.1,18.5-12.7,33.7-33.8,33.8c-21.1,0.2-34.1-14.8-34.3-33.3c-0.1-18.5,12.5-29.3,33.6-29.5
					C139.5,137.6,152.8,148.2,152.9,166.8"/>
				<path class="st48" d="M149.3,181.1c0.1,18.2-11.9,33.1-30,33.2c-18.2,0.1-30.4-14.6-30.5-32.8l-0.1-14.3c0-3.5,1.9-6.9,2.9-10.1
					c4.2-13.3,6.3-23,27.1-23.1c20.8-0.2,22,8.7,26.9,21.1c1.4,3.6,3.6,7.6,3.6,11.7"/>
				<path class="st50" d="M119.1,174.1c-2,0-3.6,1.8-3.6,4l-0.1,4.5c0,2.2,1.5,4,3.5,4.1c2,0,3.6-1.8,3.6-4l0.1-4.5
					C122.6,176,121.1,174.1,119.1,174.1"/>
			</g>
		</g>
		<path class="st38" d="M100,173.6c-0.9,0-1.6,0.8-1.6,1.8l0,0.6c0,1,0.7,1.8,1.5,1.8c0.9,0,1.6-0.8,1.6-1.7l0-0.6
			C101.6,174.4,100.9,173.6,100,173.6"/>
		<path class="st38" d="M138,173.3c-0.9,0-1.6,0.8-1.6,1.8l0,0.6c0,1,0.7,1.8,1.5,1.8c0.9,0,1.6-0.8,1.6-1.7l0-0.6
			C139.6,174.1,138.9,173.3,138,173.3"/>
		<g>
			<defs>
				<path id="SVGID_43_" d="M122.4,17C60.5,17.4,10.8,67.9,11.2,129.7c0.4,61.8,50.9,111.6,112.8,111.2
					c61.8-0.4,111.6-50.9,111.2-112.8c-0.4-61.6-50.5-111.2-111.9-111.2C122.9,16.9,122.6,16.9,122.4,17"/>
			</defs>
			<clipPath id="SVGID_44_">
				<use xlink:href="#SVGID_43_"  style="overflow:visible;"/>
			</clipPath>
			<g class="st51">
				<defs>
					<rect id="SVGID_45_" x="-165.1" y="-366.7" width="1518.6" height="1227"/>
				</defs>
				<clipPath id="SVGID_46_">
					<use xlink:href="#SVGID_45_"  style="overflow:visible;"/>
				</clipPath>
				<path class="st52" d="M153.7,179.4c0,3.3-2.7,6.1-6,6.1c-3.3,0-6.1-2.7-6.1-6c0-3.3,2.7-6.1,6-6.1
					C150.9,173.4,153.6,176.1,153.7,179.4"/>
				<path class="st52" d="M96.5,179.8c0,3.3-2.7,6.1-6,6.1c-3.3,0-6.1-2.7-6.1-6c0-3.3,2.7-6.1,6-6.1
					C93.7,173.8,96.4,176.5,96.5,179.8"/>
				<path class="st53" d="M92.2,161.4c-1.8,5.2-3,13.8-3.5,14.2c-0.3,0.3-1.8-0.4-2.2-0.9c-1.7-3.2-2.9-11.9,1.7-19.9
					c12.1-21.1,8.5-4.2,8.1-3.1C96.1,152.7,94.3,155.2,92.2,161.4"/>
				<path class="st53" d="M145.2,161c1.8,5.2,3.2,13.7,3.7,14.1c0.3,0.3,1.8-0.4,2.1-1c1.7-3.2,2.7-12-2-19.9
					c-12.4-20.9-8.5-4.1-8.2-3C141.2,152.4,143,154.8,145.2,161"/>
				<path class="st53" d="M114,197c-1.3,0-7.2-1.1-7.2-1.8c0-0.7,5.8-1.8,10-5.4c0.3-0.3,2.9,3.5,2.7,5.1
					C119.3,196,116.1,197,114,197"/>
			</g>
		</g>
		<g>
			<defs>
				<path id="SVGID_47_" d="M122.4,17C60.5,17.4,10.8,67.9,11.2,129.7c0.4,61.8,50.9,111.6,112.8,111.2
					c61.8-0.4,111.6-50.9,111.2-112.8c-0.4-61.6-50.5-111.2-111.9-111.2C122.9,16.9,122.6,16.9,122.4,17"/>
			</defs>
			<clipPath id="SVGID_48_">
				<use xlink:href="#SVGID_47_"  style="overflow:visible;"/>
			</clipPath>
			<g class="st54">
				<defs>
					<rect id="SVGID_49_" x="-165.1" y="-366.7" width="1518.6" height="1227"/>
				</defs>
				<clipPath id="SVGID_50_">
					<use xlink:href="#SVGID_49_"  style="overflow:visible;"/>
				</clipPath>
				<path class="st55" d="M124.3,197c1.3,0,7.1-1.2,7.1-1.9c0-0.7-5.8-1.8-10-5.3c-0.3-0.3-2.9,3.5-2.6,5.1
					C119,196,122.2,197,124.3,197"/>
			</g>
		</g>
	</g>
	<path class="st56" d="M126.8,4.8c-67.4,0-122,54.6-122,122s54.6,122,122,122s122-54.6,122-122S194.2,4.8,126.8,4.8z M55.1,55.1
		c19.2-19.2,44.6-29.7,71.7-29.7c24.2,0,47,8.4,65.3,23.8L49.2,192.1c-15.4-18.3-23.8-41.1-23.8-65.3C25.4,99.7,35.9,74.2,55.1,55.1
		z M198.5,198.5c-19.2,19.2-44.6,29.7-71.7,29.7c-23.1,0-45-7.7-62.9-21.8L206.4,63.9c14.2,17.8,21.8,39.8,21.8,62.9
		C228.2,153.9,217.7,179.4,198.5,198.5z"/>
	<path class="st57" d="M125,0C56,0,0,56,0,125s56,125,125,125s125-56,125-125S194,0,125,0z M51.5,51.5C71.1,31.9,97.2,21.1,125,21.1
		c24.8,0,48.2,8.6,66.9,24.4L45.4,191.9c-15.8-18.7-24.4-42.1-24.4-66.9C21.1,97.2,31.9,71.1,51.5,51.5z M198.5,198.5
		c-19.6,19.6-45.7,30.4-73.5,30.4c-23.7,0-46.2-7.9-64.4-22.4l146-146c14.5,18.3,22.4,40.8,22.4,64.4
		C228.9,152.8,218.1,178.9,198.5,198.5z"/>
</g>
</svg>
