<?xml version="1.0" encoding="utf-8"?>
<!-- Generator: Adobe Illustrator 18.0.0, SVG Export Plug-In . SVG Version: 6.00 Build 0)  -->
<!DOCTYPE svg PUBLIC "-//W3C//DTD SVG 1.1//EN" "http://www.w3.org/Graphics/SVG/1.1/DTD/svg11.dtd">
<svg version="1.1" id="Layer_1" xmlns="http://www.w3.org/2000/svg" xmlns:xlink="http://www.w3.org/1999/xlink" x="0px" y="0px"
	 width="945.5px" height="322.4px" viewBox="0 328.7 945.5 322.4" enable-background="new 0 328.7 945.5 322.4"
	 xml:space="preserve">
<g>
	<g>
		<path fill="#FFFFFF" d="M435.5,614.1H394v-40h41.5V614.1z"/>
		<path fill="#FFFFFF" d="M532.2,614.1h-41.7V346.5h41.7V614.1z"/>
		<path fill="#FFFFFF" d="M623.2,383.1h-41.7v-36.5h41.7V383.1z M623.2,614.1h-41.7V428.5h41.7V614.1z"/>
		<path fill="#FFFFFF" d="M683.4,614.1V459.4h-28.3v-30.9h28.3v-21.6c0-20.5,5.6-36.2,16.7-47.3c11.1-11.1,26.8-16.6,46.9-16.6
			c4,0,8.1,0.3,12.2,0.9c4.1,0.6,8.7,1.5,13.9,2.7l-4.3,32.2c-2.3-0.5-4.8-0.9-7.6-1.2c-2.8-0.3-5.8-0.5-9-0.5
			c-9,0-15.8,2.6-20.3,7.7c-4.5,5.1-6.8,12.5-6.8,22.1v21.6h37.7v30.9h-37.7v154.7H683.4z"/>
		<path fill="#FFFFFF" d="M872.8,617.7c-26.3,0-47.2-8.6-62.9-25.8c-15.6-17.2-23.4-39.3-23.4-66.3v-6.9c0-27,7.7-49.4,23.2-67.1
			c15.5-17.8,34.9-26.6,58.2-26.5c25,0,44.2,7.6,57.5,22.7c13.3,15.2,20,35.5,20,61v24.5H829.7l-0.3,0.9c0.7,14.7,5,26.7,12.9,36.1
			c7.9,9.3,18.9,14,33,14c11.2,0,20.8-1.4,28.8-4.1c8-2.7,15.7-6.7,23.2-11.8l13.4,27.3c-7,6.2-16.2,11.4-27.8,15.7
			C901.3,615.5,888,617.7,872.8,617.7z M868,458.5c-10.3,0-18.8,4.1-25.4,12.3c-6.6,8.2-10.7,18.6-12.3,31.1l0.3,0.9h73.6v-4.3
			c0-11.8-3-21.4-9-28.8C889.1,462.2,880.1,458.5,868,458.5z"/>
	</g>
	<g>
		<path fill="#FFFFFF" d="M266.2,342c-36.2,29-54.2,60.3-63.1,85.7c22,18,40.1,54.7,48.8,74.7c8,18.4,21,52.4,21.6,79.8
			c15.1,9.1,31.3,12.5,47.8,5.3c35.6-16.6,26.9-53.4,26.9-53.4s-7-31.3-41.4-48.5c33.8-20.9,35.4-58.2,37.3-70.9
			C346,401.8,332,291.3,266.2,342z M303,426.7c-8.6,19-25.5,30-37.9,24.4c-12.4-5.5-15.4-25.5-6.9-44.5c8.6-19,25.5-30,37.9-24.4
			C308.4,387.7,311.5,407.6,303,426.7z"/>
		<path fill="#FFFFFF" d="M169.4,538.3c-8.9-20.4-23.9-59.8-21.3-88.3c-25.3-10.1-60.9-17.2-107.3-9.9c-85,15-12.4,100-1.4,107.2
			c11,7.2,40,31.1,79.7,20c-11.8,37.3,6.6,63.7,6.6,63.7s21.3,31.3,59.2,15.9c16.4-7.1,25.4-20.7,29.7-37.1
			C194.2,591,177.6,557.2,169.4,538.3z M123.2,513.2c-4.5,12.8-24.1,17.5-43.8,10.6c-19.7-6.9-32-22.9-27.5-35.7
			c4.5-12.8,24.1-17.5,43.8-10.6C115.4,484.5,127.7,500.5,123.2,513.2z"/>
		<circle fill="#FFFFFF" cx="151.1" cy="384.5" r="39.3"/>
		<g>
			
				<ellipse transform="matrix(0.9168 -0.3993 0.3993 0.9168 -190.2536 127.3749)" fill="#FFFFFF" cx="210.6" cy="520.4" rx="23.3" ry="88.1"/>
		</g>
	</g>
</g>
</svg>
